<?xml version="1.0" encoding="utf-8"?>
<!-- Generator: Adobe Illustrator 28.2.0, SVG Export Plug-In . SVG Version: 6.00 Build 0)  -->
<svg version="1.1" id="Layer_1" xmlns="http://www.w3.org/2000/svg" xmlns:xlink="http://www.w3.org/1999/xlink" x="0px" y="0px"
	 viewBox="0 0 500 377.1" style="enable-background:new 0 0 500 377.1;" xml:space="preserve">
<style type="text/css">
	.st0{fill:#1549E6;}
</style>
<polygon class="st0" points="5.4,77.2 47.6,77.2 47.6,304.8 5.4,304.8 5.4,376.4 184.6,376.4 184.6,304.8 142.4,304.8 142.4,77.2 
	496,77.2 496,5.7 5.4,5.7 "/>
<path class="st0" d="M494.8,218.1c-0.3-38.2-7.1-67.2-20.3-87c-13.2-19.8-31.5-29.6-54.9-29.4c-15.6,0.1-29,4.5-40.1,13.2
	c-11.1,8.7-19.5,20.9-25.3,36.6c-0.2,0.7-0.4,1.4-0.7,2c-5.8-11.2-13.1-20-22-26.4c-10.7-7.7-22.9-11.5-36.5-11.4
	c-20.5,0.1-37.3,9.4-50.4,27.7c-13.1,18.3-19.5,46.6-19.2,84.8l1.1,147.9l269.4-2.1L494.8,218.1L494.8,218.1z M289.1,240.3
	c-0.1-10.5,1.5-18.3,4.8-23.2c3.3-4.9,8.3-7.4,14.9-7.4c6.4-0.1,11.4,2.4,14.9,7.2c3.5,4.8,5.3,12.6,5.4,23.1l0.3,43.5l-40,0.3
	L289.1,240.3L289.1,240.3z M389.5,283l-0.4-56.1c-0.1-10.3,1.7-18,5.2-23.2c3.6-5.2,8.8-7.8,15.7-7.8c6.9-0.1,12.2,2.5,15.8,7.6
	c3.6,5.1,5.5,12.8,5.6,23.1l0.4,56.1L389.5,283L389.5,283z"/>
</svg>
