<?xml version="1.0" encoding="utf-8"?>
<!-- Generator: Adobe Illustrator 28.2.0, SVG Export Plug-In . SVG Version: 6.00 Build 0)  -->
<svg version="1.1" id="Layer_1" xmlns="http://www.w3.org/2000/svg" xmlns:xlink="http://www.w3.org/1999/xlink" x="0px" y="0px"
	 viewBox="0 0 470.8 158.9" style="enable-background:new 0 0 470.8 158.9;" xml:space="preserve">
<style type="text/css">
	.st0{fill:#FFFFFF;}
</style>
<polygon class="st0" points="0,30.2 15.5,30.2 15.5,109.9 0,109.9 0,136.2 66,136.2 66,109.9 50.4,109.9 50.4,30.2 470.8,30.2 
	470.8,3.9 0,3.9 "/>
<path class="st0" d="M172.7,45.9c-4.9-7.3-11.6-10.9-20.2-10.8c-5.8,0-10.7,1.7-14.8,4.8s-7.2,7.7-9.3,13.5
	c-0.1,0.3-0.2,0.5-0.3,0.8c-2.1-4.1-4.8-7.4-8.1-9.7c-3.9-2.8-8.4-4.2-13.4-4.2c-7.6,0.1-13.7,3.5-18.6,10.2
	c-4.8,6.7-7.2,17.1-7.1,31.2l0.4,54.5l99.2-0.8L180.2,78C180.1,63.9,177.6,53.2,172.7,45.9L172.7,45.9z M104.4,86.1
	c0-3.9,0.6-6.7,1.8-8.5c1.2-1.8,3-2.7,5.5-2.7c2.4,0,4.2,0.9,5.5,2.6c1.3,1.8,1.9,4.6,2,8.5l0.1,16l-14.7,0.1L104.4,86.1z
	 M141.4,101.8l-0.2-20.7c0-3.8,0.6-6.6,1.9-8.5c1.3-1.9,3.2-2.9,5.8-2.9c2.5,0,4.5,0.9,5.8,2.8c1.4,1.9,2,4.7,2.1,8.5l0.2,20.7
	L141.4,101.8L141.4,101.8z"/>
<polygon class="st0" points="267.2,46.4 239.3,32 191.9,124.1 257,157.7 269.4,133.7 232.1,114.4 "/>
<path class="st0" d="M344.6,60.4c-7.6-3.9-16.1-5.8-25.8-5.8c-9.7,0-18.3,1.9-25.9,5.8c-7.6,3.9-13.6,9.2-17.9,16.1
	c-4.3,6.8-6.5,14.6-6.5,23.4s2.2,16.5,6.5,23.3c4.3,6.9,10.3,12.2,17.9,16.1c7.6,3.9,16.2,5.8,25.9,5.8c9.7,0,18.3-1.9,25.8-5.8
	c7.6-3.9,13.5-9.3,17.8-16.1c4.3-6.8,6.5-14.6,6.5-23.3s-2.2-16.6-6.5-23.4C358.1,69.6,352.2,64.3,344.6,60.4z M332.6,109.5
	c-1.3,2.8-3.2,5-5.5,6.6c-2.4,1.6-5.1,2.4-8.3,2.4c-3.2,0-5.8-0.8-8.2-2.4c-2.4-1.6-4.3-3.8-5.7-6.6c-1.4-2.8-2.1-6-2.1-9.7
	s0.7-6.9,2.1-9.7c1.4-2.8,3.3-5,5.7-6.6c2.4-1.6,5.2-2.4,8.2-2.4c3.1,0,5.9,0.8,8.3,2.4c2.4,1.6,4.2,3.8,5.5,6.6c1.3,2.8,2,6,2,9.7
	S334,106.7,332.6,109.5z"/>
<path class="st0" d="M438.4,110.6c-2.5,0.8-5.2,1.2-8,1.2c-3.7,0-6.8-0.8-9.3-2.3s-4.5-3.7-5.9-6.4c-1.4-2.8-2.1-6.1-2.1-9.9
	c0-3.8,0.7-7.3,2.2-10.1c1.5-2.8,3.5-4.9,6.1-6.4c2.6-1.5,5.6-2.2,9.1-2.2c3.5,0,6.7,0.8,9.7,2.3c3,1.5,5.7,3.9,8.2,7l22.3-18.5
	c-4.4-5.7-10-10.1-16.6-13c-6.6-3-14.5-4.4-23.6-4.4c-10.2,0-19.1,1.9-26.9,5.8c-7.8,3.9-13.9,9.2-18.3,16.1
	c-4.4,6.8-6.6,14.6-6.6,23.4s2.1,16.5,6.3,23.3c4.2,6.9,10.1,12.2,17.7,16.1c7.6,3.9,16.6,5.8,27,5.8c3.8,0,8-0.4,12.5-1.3
	c4.5-0.8,9-2.1,13.4-3.7s8.5-3.6,12.1-6V91.3h-29.4L438.4,110.6L438.4,110.6z"/>
</svg>
